<?xml version="1.0" encoding="UTF-8"?>
<svg version="1.1" xmlns="http://www.w3.org/2000/svg" width="288" height="244">
<path d="M0 0 C0.47324707 0.60537598 0.94649414 1.21075195 1.43408203 1.83447266 C4.65343873 5.71574095 8.06894953 9.29802625 11.63720703 12.85400391 C12.19639832 13.41214279 12.7555896 13.97028168 13.33172607 14.54533386 C15.07479158 16.28174797 16.82075644 18.01521143 18.56689453 19.74853516 C19.74551508 20.92212719 20.92390215 22.09595375 22.10205078 23.27001953 C24.74647833 25.90455219 27.39340719 28.53654694 30.04180908 31.16708374 C31.42599753 32.5452078 32.80483036 33.92870424 34.18359375 35.31225586 C37.08939891 38.22715634 37.08939891 38.22715634 40.44189453 40.56103516 C43.82075255 40.14040181 45.43802962 38.92546641 47.75439453 36.49853516 C48.36025391 35.86689453 48.96611328 35.23525391 49.59033203 34.58447266 C51.38520155 32.62299078 53.13935373 30.63371928 54.87939453 28.62353516 C67.53776272 14.03519155 67.53776272 14.03519155 75.27001953 13.28759766 C83.85598529 13.01267757 88.99974157 14.82148259 95.44189453 20.56103516 C97.20751953 23.43603516 97.20751953 23.43603516 98.69189453 26.56103516 C99.19205078 27.59228516 99.69220703 28.62353516 100.20751953 29.68603516 C102.30346467 34.56773016 102.56652828 38.4933325 102.55883789 43.83300781 C102.5588681 44.55880035 102.55889832 45.2845929 102.55892944 46.03237915 C102.55654078 48.43002436 102.54539697 50.82749115 102.53173828 53.22509766 C102.52727755 54.0474226 102.52281681 54.86974754 102.5182209 55.71699142 C102.4925605 60.07279994 102.45872127 64.42847202 102.41967773 68.78417969 C102.38915093 72.37481444 102.37539998 75.96490217 102.37670898 79.55566406 C102.37823962 83.90495887 102.35048726 88.25316523 102.30227852 92.6021843 C102.28871402 94.25177246 102.28510523 95.90147612 102.29203606 97.5511055 C102.32286867 107.06395013 102.02431693 115.02744699 95.44189453 122.56103516 C88.81400181 128.68395344 82.61248087 130.85488882 73.55981445 130.88330078 C72.4097567 130.8981955 72.4097567 130.8981955 71.23646545 130.91339111 C68.71506075 130.94245793 66.19390758 130.95620763 63.67236328 130.96728516 C62.37355948 130.97576729 62.37355948 130.97576729 61.04851723 130.98442078 C56.46698422 131.01433363 51.88557602 131.03283752 47.30395508 131.04150391 C42.58956968 131.05246783 37.87634118 131.10052857 33.16231823 131.15744781 C29.52041867 131.19483267 25.87879431 131.20511861 22.23671913 131.20817566 C20.49966413 131.21419948 18.76261229 131.23015757 17.0257473 131.25654602 C0.67550348 131.48724462 0.67550348 131.48724462 -6.06289673 126.11100769 C-8.06811187 124.03234917 -9.17821005 122.0992977 -10.12060547 119.37353516 C-11.55128276 115.867392 -11.55128276 115.867392 -14.31982422 113.49853516 C-15.66334462 113.07621047 -17.01562415 112.68094028 -18.37451172 112.31103516 C-25.16571598 109.97845695 -30.14027076 104.49560753 -33.68310547 98.45556641 C-35.66484132 94.1647544 -35.69884086 90.17187488 -35.73510742 85.47265625 C-35.74167862 84.76637085 -35.74824982 84.06008545 -35.75502014 83.33239746 C-35.77469475 80.99975463 -35.78640506 78.66717614 -35.79638672 76.33447266 C-35.80046225 75.53421284 -35.80453777 74.73395302 -35.8087368 73.9094429 C-35.82957657 69.67042553 -35.84388513 65.43144028 -35.85327148 61.19238281 C-35.86430823 56.83479197 -35.89868209 52.47771565 -35.93844318 48.12030602 C-35.96471463 44.75203568 -35.97297278 41.38388576 -35.97655296 38.015522 C-35.98139483 36.4105038 -35.99293958 34.8054901 -36.01159096 33.20057297 C-36.12523163 22.7705125 -35.46368512 14.30453465 -29.43310547 5.43603516 C-28.81435547 4.81728516 -28.19560547 4.19853516 -27.55810547 3.56103516 C-26.89810547 3.56103516 -26.23810547 3.56103516 -25.55810547 3.56103516 C-25.55810547 2.90103516 -25.55810547 2.24103516 -25.55810547 1.56103516 C-18.35980111 -2.99299413 -7.26057176 -6.70539172 0 0 Z " fill="#4D5281" transform="translate(112.55810546875,58.43896484375)"/>
<path d="M0 0 C0.47324707 0.60537598 0.94649414 1.21075195 1.43408203 1.83447266 C4.65343873 5.71574095 8.06894953 9.29802625 11.63720703 12.85400391 C12.19639832 13.41214279 12.7555896 13.97028168 13.33172607 14.54533386 C15.07479158 16.28174797 16.82075644 18.01521143 18.56689453 19.74853516 C19.74551508 20.92212719 20.92390215 22.09595375 22.10205078 23.27001953 C24.74647833 25.90455219 27.39340719 28.53654694 30.04180908 31.16708374 C31.42599753 32.5452078 32.80483036 33.92870424 34.18359375 35.31225586 C37.08939891 38.22715634 37.08939891 38.22715634 40.44189453 40.56103516 C43.12970111 40.39813779 44.18318458 39.79202619 46.19189453 37.99853516 C46.60439453 37.52416016 47.01689453 37.04978516 47.44189453 36.56103516 C48.10189453 36.89103516 48.76189453 37.22103516 49.44189453 37.56103516 C48.44553266 38.58541971 47.44450166 39.60526229 46.44189453 40.62353516 C45.88501953 41.19201172 45.32814453 41.76048828 44.75439453 42.34619141 C42.83886864 44.18082516 40.88980993 45.90347457 38.87719727 47.62792969 C34.10754284 51.79252797 29.63485907 56.22406794 25.16455078 60.70556641 C24.31259628 61.55656418 23.46064178 62.40756195 22.58287048 63.28434753 C20.79758953 65.06895221 19.01355381 66.8548034 17.23071289 68.6418457 C14.49169792 71.38625678 11.74733501 74.12523948 9.00244141 76.86376953 C7.26449012 78.60238092 5.52684867 80.34130211 3.78955078 82.08056641 C2.96673111 82.90136185 2.14391144 83.72215729 1.29615784 84.56782532 C0.54124557 85.32588974 -0.21366669 86.08395416 -0.99145508 86.86499023 C-1.65793564 87.53226639 -2.3244162 88.19954254 -3.01109314 88.88703918 C-4.64114919 90.49494687 -4.64114919 90.49494687 -5.55810547 92.56103516 C-6.21810547 92.56103516 -6.87810547 92.56103516 -7.55810547 92.56103516 C-9.8148855 99.23202016 -11.12425999 105.52974638 -11.55810547 112.56103516 C-15.87723838 113.2009067 -18.31234784 113.28474307 -22.14013672 111.06103516 C-28.53482357 106.15236999 -33.95701998 100.68500038 -35.55810547 92.56103516 C-35.6659166 90.19996581 -35.71686726 87.83611536 -35.73510742 85.47265625 C-35.74167862 84.76637085 -35.74824982 84.06008545 -35.75502014 83.33239746 C-35.77469475 80.99975463 -35.78640506 78.66717614 -35.79638672 76.33447266 C-35.80046225 75.53421284 -35.80453777 74.73395302 -35.8087368 73.9094429 C-35.82957657 69.67042553 -35.84388513 65.43144028 -35.85327148 61.19238281 C-35.86430823 56.83479197 -35.89868209 52.47771565 -35.93844318 48.12030602 C-35.96471463 44.75203568 -35.97297278 41.38388576 -35.97655296 38.015522 C-35.98139483 36.4105038 -35.99293958 34.8054901 -36.01159096 33.20057297 C-36.12523163 22.7705125 -35.46368512 14.30453465 -29.43310547 5.43603516 C-28.81435547 4.81728516 -28.19560547 4.19853516 -27.55810547 3.56103516 C-26.89810547 3.56103516 -26.23810547 3.56103516 -25.55810547 3.56103516 C-25.55810547 2.90103516 -25.55810547 2.24103516 -25.55810547 1.56103516 C-18.35980111 -2.99299413 -7.26057176 -6.70539172 0 0 Z " fill="#4B8CE5" transform="translate(112.55810546875,58.43896484375)"/>
<path d="M0 0 C1.32 0.66 2.64 1.32 4 2 C4 2.66 4 3.32 4 4 C4.556875 4.20625 5.11375 4.4125 5.6875 4.625 C8.24041103 6.1429471 9.68006041 7.96033569 11.49609375 10.27734375 C13.86631089 12.99231975 16.64521139 15.20235463 19.42578125 17.484375 C19.94527344 17.98453125 20.46476562 18.4846875 21 19 C21 19.66 21 20.32 21 21 C21.556875 21.226875 22.11375 21.45375 22.6875 21.6875 C25.6865221 23.38964768 27.64499245 25.47677762 30 28 C30.52207031 28.55171875 31.04414063 29.1034375 31.58203125 29.671875 C36.92421691 35.54697942 38.41642745 40.621211 38.26171875 48.53515625 C37.8727491 52.1984376 36.69866479 54.73333694 35 58 C34.67 58.7425 34.34 59.485 34 60.25 C32.88359971 62.20370051 31.72767106 63.56027412 30 65 C29.34 65 28.68 65 28 65 C28 65.66 28 66.32 28 67 C24.27213491 69.48524339 22.36758678 69.2478059 17.9140625 69.24291992 C17.19667908 69.24481827 16.47929565 69.24671661 15.74017334 69.24867249 C13.36833779 69.25237779 10.99680835 69.24167939 8.625 69.23046875 C6.97737667 69.22927665 5.32975265 69.22882385 3.68212891 69.2290802 C0.22879787 69.22751574 -3.22442943 69.21922911 -6.67773438 69.20581055 C-11.10646355 69.1888208 -15.53507872 69.18499625 -19.96383667 69.18575573 C-23.36614065 69.18548392 -26.76841966 69.18000095 -30.17071533 69.17275429 C-31.80381074 69.16956996 -33.43690898 69.16760076 -35.07000732 69.16686058 C-37.35140816 69.16469452 -39.63268769 69.15594451 -41.9140625 69.14526367 C-43.2129541 69.14145187 -44.5118457 69.13764008 -45.85009766 69.13371277 C-49 69 -49 69 -52 68 C-52.58179863 60.40429561 -51.26889853 54.85884959 -48 48 C-47.34 48 -46.68 48 -46 48 C-45.75798859 47.43267151 -45.51597717 46.86534302 -45.26663208 46.28082275 C-43.75147793 43.55248663 -41.94782424 41.70812239 -39.73388672 39.50683594 C-38.85312469 38.62622498 -37.97236267 37.74561401 -37.06491089 36.83831787 C-36.10327649 35.88689569 -35.1415328 34.93558397 -34.1796875 33.984375 C-33.19561893 33.00403871 -32.21199258 32.02325832 -31.22879028 31.04205322 C-28.64557286 28.46645533 -26.05640488 25.89692143 -23.46594238 23.32861328 C-20.8213238 20.70448933 -18.1823899 18.07466229 -15.54296875 15.4453125 C-10.36751928 10.2912833 -5.18576878 5.14364843 0 0 Z " fill="#273A7E" transform="translate(153,103)"/>
<path d="M0 0 C0.66 0.99 1.32 1.98 2 3 C0.02 3.99 0.02 3.99 -2 5 C-2.02326035 14.97995413 -2.04098449 24.95990171 -2.05181217 34.93987751 C-2.0570112 39.57491838 -2.0640542 44.20994058 -2.07543945 48.8449707 C-2.0863749 53.32536691 -2.09229924 57.80574526 -2.09487724 62.28615379 C-2.0967124 63.98800118 -2.10029567 65.68984769 -2.10573006 67.39168739 C-2.13307176 76.31611693 -2.0805858 85.12397279 -1 94 C-0.01 94.33 0.98 94.66 2 95 C2 95.99 2 96.98 2 98 C3.65 98.33 5.3 98.66 7 99 C7 99.66 7 100.32 7 101 C8.32 101.33 9.64 101.66 11 102 C11.33 103.32 11.66 104.64 12 106 C4.38973716 102.37283686 -1.35574123 97.72645422 -5 90 C-6.19826735 86.31713095 -6.14726628 82.76460374 -6.17700195 78.91162109 C-6.18357315 78.20533569 -6.19014435 77.49905029 -6.19691467 76.7713623 C-6.21658928 74.43871948 -6.22829959 72.10614099 -6.23828125 69.7734375 C-6.24235678 68.97317768 -6.2464323 68.17291786 -6.25063133 67.34840775 C-6.2714711 63.10939037 -6.28577966 58.87040513 -6.29516602 54.63134766 C-6.30620276 50.27375681 -6.34057662 45.91668049 -6.38033772 41.55927086 C-6.40660916 38.19100052 -6.41486732 34.82285061 -6.41844749 31.45448685 C-6.42328936 29.84946864 -6.43483411 28.24445494 -6.45348549 26.63953781 C-6.54866206 17.90413132 -6.59790919 9.77395869 -2 2 C-1.34 1.34 -0.68 0.68 0 0 Z " fill="#758DAF" transform="translate(83,65)"/>
<path d="M0 0 C0.50200928 0.63413818 1.00401855 1.26827637 1.52124023 1.92163086 C5.7988706 7.07994983 10.50843421 11.737121 15.26733398 16.44897461 C16.14196289 17.3190918 17.0165918 18.18920898 17.91772461 19.08569336 C20.05280848 21.2091101 22.19020604 23.33013838 24.32983398 25.44897461 C23.33983398 25.77897461 22.34983398 26.10897461 21.32983398 26.44897461 C20.84772461 25.88307617 20.36561523 25.31717773 19.86889648 24.73413086 C19.23725586 24.0006543 18.60561523 23.26717773 17.95483398 22.51147461 C17.32834961 21.78057617 16.70186523 21.04967773 16.05639648 20.29663086 C14.45235685 18.36516555 14.45235685 18.36516555 12.32983398 17.44897461 C12.32983398 16.78897461 12.32983398 16.12897461 12.32983398 15.44897461 C11.33983398 15.11897461 10.34983398 14.78897461 9.32983398 14.44897461 C6.55714676 11.89518375 4.11045914 9.20299788 1.76733398 6.26147461 C-1.10814075 2.94361914 -2.87978999 1.6328803 -7.25610352 1.18334961 C-16.217215 1.05872433 -16.217215 1.05872433 -23.67016602 5.44897461 C-26.29516602 6.07397461 -26.29516602 6.07397461 -28.67016602 6.44897461 C-28.34016602 5.45897461 -28.01016602 4.46897461 -27.67016602 3.44897461 C-27.01016602 3.44897461 -26.35016602 3.44897461 -25.67016602 3.44897461 C-25.67016602 2.78897461 -25.67016602 2.12897461 -25.67016602 1.44897461 C-18.37152608 -3.16853229 -7.30877152 -6.78740322 0 0 Z " fill="#6F87AB" transform="translate(112.670166015625,58.551025390625)"/>
<path d="M0 0 C4.77258479 2.1211488 8.34265796 5.06019081 11.5 9.1875 C13.7356177 12.09649906 13.7356177 12.09649906 16.5625 13.125 C19.19034526 13.2354932 19.19034526 13.2354932 21.3125 11.0625 C21.869375 10.381875 22.42625 9.70125 23 9 C23.66 9.33 24.32 9.66 25 10 C23.88121617 11.17262904 22.75476949 12.33795138 21.625 13.5 C20.99851563 14.1496875 20.37203125 14.799375 19.7265625 15.46875 C18 17 18 17 16 17 C14.68733467 15.68733467 13.39466087 14.35430493 12.125 13 C10.16309077 10.93100791 10.16309077 10.93100791 7.875 10.0625 C5.26841353 8.58543434 5.04903265 6.72748489 4 4 C3.01 3.67 2.02 3.34 1 3 C0.67 2.01 0.34 1.02 0 0 Z " fill="#828996" transform="translate(137,86)"/>
<path d="M0 0 C1.28317892 3.84953676 1.06643637 6.94738135 1 11 C-0.65 11 -2.3 11 -4 11 C-4.268125 10.38125 -4.53625 9.7625 -4.8125 9.125 C-5.95556848 6.7004767 -5.95556848 6.7004767 -9 5 C-8.01 4.67 -7.02 4.34 -6 4 C-6 3.01 -6 2.02 -6 1 C-4.35 1.33 -2.7 1.66 -1 2 C-0.67 1.34 -0.34 0.68 0 0 Z " fill="#5A95E3" transform="translate(99,160)"/>
<path d="M0 0 C0.33 0 0.66 0 1 0 C0.490671 6.36661252 -1.06283143 10.31959883 -5.83203125 14.671875 C-9.7695433 17.83393056 -12.80177944 19.74008897 -18 20 C-18 19.34 -18 18.68 -18 18 C-17.34773437 17.731875 -16.69546875 17.46375 -16.0234375 17.1875 C-8.29759589 13.72340583 -4.14734585 9.68511821 -0.625 2 C-0.315625 1.01 -0.315625 1.01 0 0 Z " fill="#85858A" transform="translate(212,168)"/>
<path d="M0 0 C0.99 0.33 1.98 0.66 3 1 C3 1.66 3 2.32 3 3 C3.99 3.33 4.98 3.66 6 4 C6 4.99 6 5.98 6 7 C7.65 7.33 9.3 7.66 11 8 C11 8.66 11 9.32 11 10 C12.32 10.33 13.64 10.66 15 11 C15.33 12.32 15.66 13.64 16 15 C8.61989002 11.49115307 3.55633328 7.40902767 0 0 Z " fill="#6E87A8" transform="translate(79,156)"/>
<path d="M0 0 C3.36335594 1.45745424 5.54534005 3.31117854 8.109375 5.9140625 C8.86347656 6.67460938 9.61757812 7.43515625 10.39453125 8.21875 C11.17183594 9.0128125 11.94914062 9.806875 12.75 10.625 C13.54277344 11.42679688 14.33554688 12.22859375 15.15234375 13.0546875 C17.10614493 15.03202846 19.05512103 17.01388909 21 19 C20.01 19.33 19.02 19.66 18 20 C17.51789063 19.43410156 17.03578125 18.86820313 16.5390625 18.28515625 C15.90742188 17.55167969 15.27578125 16.81820312 14.625 16.0625 C13.99851563 15.33160156 13.37203125 14.60070312 12.7265625 13.84765625 C11.12252286 11.91619094 11.12252286 11.91619094 9 11 C9 10.34 9 9.68 9 9 C8.01 8.67 7.02 8.34 6 8 C1.22727273 3.68181818 1.22727273 3.68181818 0 0 Z " fill="#8390A6" transform="translate(116,65)"/>
<path d="M0 0 C4.62 0 9.24 0 14 0 C13.67 0.99 13.34 1.98 13 3 C9 3 5 3 1 3 C0.67 2.01 0.34 1.02 0 0 Z " fill="#4A4E73" transform="translate(181,74)"/>
<path d="M0 0 C0.99 0.33 1.98 0.66 3 1 C2.34 1 1.68 1 1 1 C0.87625 1.61875 0.7525 2.2375 0.625 2.875 C0 5 0 5 -2 7 C-4.625 7.625 -4.625 7.625 -7 8 C-6.67 7.01 -6.34 6.02 -6 5 C-5.34 5 -4.68 5 -4 5 C-4 4.34 -4 3.68 -4 3 C-2.1875 1.3125 -2.1875 1.3125 0 0 Z " fill="#667B95" transform="translate(91,57)"/>
<path d="M0 0 C0.33 0.66 0.66 1.32 1 2 C-4.96583144 9.66742597 -4.96583144 9.66742597 -10 11 C-6.79239749 7.19364503 -3.59253891 3.45436433 0 0 Z " fill="#284D97" transform="translate(149,107)"/>
<path d="M0 0 C3.35915158 1.43963639 5.71624938 3.12416589 8 6 C7.75 8.25 7.75 8.25 7 10 C4 6.25 4 6.25 4 4 C3.01 3.67 2.02 3.34 1 3 C0.67 2.01 0.34 1.02 0 0 Z " fill="#7B92B6" transform="translate(137,86)"/>
<path d="M0 0 C4.39381209 0.50214995 6.83419795 1.92213689 10 5 C10.8125 7.25 10.8125 7.25 11 9 C7.26790586 7.75596862 5.69291525 5.82756102 3 3 C2.401875 2.401875 1.80375 1.80375 1.1875 1.1875 C0.795625 0.795625 0.40375 0.40375 0 0 Z " fill="#83848B" transform="translate(198,74)"/>
<path d="M0 0 C0.99 0.33 1.98 0.66 3 1 C0.14723863 3.93200474 -2.65079784 6.64315404 -6 9 C-4.68775452 5.06326356 -3.08089673 2.77280706 0 0 Z " fill="#939497" transform="translate(169,85)"/>
<path d="M0 0 C0.99 0 1.98 0 3 0 C3 0.66 3 1.32 3 2 C1.34997172 3.35386936 -0.3174387 4.68678142 -2 6 C-2.33 6.66 -2.66 7.32 -3 8 C-3.66 7.67 -4.32 7.34 -5 7 C-3.47793991 4.37098712 -2.15634036 2.15634036 0 0 Z " fill="#8E8E93" transform="translate(179,75)"/>
<path d="M0 0 C1.32 0.66 2.64 1.32 4 2 C4 2.99 4 3.98 4 5 C3.01 5 2.02 5 1 5 C1 4.34 1 3.68 1 3 C-0.32 3.33 -1.64 3.66 -3 4 C-2.01 2.68 -1.02 1.36 0 0 Z " fill="#2C448B" transform="translate(153,103)"/>
<path d="M0 0 C0.66 0.99 1.32 1.98 2 3 C2.33 2.34 2.66 1.68 3 1 C3.33 1.99 3.66 2.98 4 4 C1.36 4.33 -1.28 4.66 -4 5 C-2.68 3.35 -1.36 1.7 0 0 Z " fill="#5A5B6F" transform="translate(174,80)"/>
<path d="M0 0 C0.99 0.33 1.98 0.66 3 1 C3 1.66 3 2.32 3 3 C3.99 3.33 4.98 3.66 6 4 C6.33 5.65 6.66 7.3 7 9 C4.03595495 6.19195732 1.55500981 3.81684226 0 0 Z " fill="#6D7581" transform="translate(79,156)"/>
<path d="M0 0 C1.42944945 2.35438733 2.08661261 3.48032433 1.625 6.25 C1.41875 6.8275 1.2125 7.405 1 8 C0.34 8 -0.32 8 -1 8 C-1.625 5.125 -1.625 5.125 -2 2 C-1.34 1.34 -0.68 0.68 0 0 Z " fill="#444663" transform="translate(212,163)"/>
<path d="M0 0 C2.475 0.495 2.475 0.495 5 1 C5.33 1.99 5.66 2.98 6 4 C5.01 5.485 5.01 5.485 4 7 C4 6.34 4 5.68 4 5 C3.34 5 2.68 5 2 5 C2 4.01 2 3.02 2 2 C1.34 2 0.68 2 0 2 C0 1.34 0 0.68 0 0 Z " fill="#505370" transform="translate(205,81)"/>
</svg>
